<?xml version="1.0" encoding="utf-8"?>
<!-- Generator: Adobe Illustrator 16.0.0, SVG Export Plug-In . SVG Version: 6.00 Build 0)  -->
<!DOCTYPE svg PUBLIC "-//W3C//DTD SVG 1.1//EN" "http://www.w3.org/Graphics/SVG/1.1/DTD/svg11.dtd">
<svg version="1.1" id="Layer_1" xmlns="http://www.w3.org/2000/svg" xmlns:xlink="http://www.w3.org/1999/xlink" x="0px" y="0px"
	 width="457.019px" height="181.655px" viewBox="115.696 414.318 457.019 181.655"
	 enable-background="new 115.696 414.318 457.019 181.655" xml:space="preserve">
<g transform="translate(0.000000,976.000000) scale(0.100000,-0.100000)">
	<path fill="#FFFFFF" d="M1990.547,5614.545c-41.685-9.341-77.378-29.512-106.929-60.371c-29.712-31.03-47.29-66.167-54.951-109.351
		c-2.988-17.573-4.116-49.546-1.875-56.646c1.133-3.75,0.195-4.116-17.378-6.167c-63.945-7.686-130.479-36.455-186.206-80.576
		c-20.566-16.274-75.903-72.158-84.116-85.073c-11.958-18.491-16.27-32.886-17.207-56.079c-1.128-24.307,1.699-37.959,12.158-57.949
		c8.599-16.445,28.789-37.207,44.688-45.415c36.631-19.277,82.437-17.202,115.903,5.229l5.972,3.916l15.898-15.894
		c31.973-32.339,52.705-71.978,62.983-121.333c3.179-14.57,4.136-25.986,4.312-48.955c0-16.465-0.566-32.91-1.304-36.66
		c-1.313-6.729-1.68-6.904-11.221-7.656c-13.281-1.113-32.168-10.088-42.07-20.371c-4.473-4.512-10.83-13.086-14.009-19.443
		c-5.62-10.654-5.986-12.354-5.986-31.787c0-18.33,0.566-21.689,5.049-31.23c6.909-14.756,20.19-28.408,34.585-35.488
		c10.083-4.863,11.777-6.533,11.021-9.736c-2.612-10.654-8.975-79.082-10.278-112.559c-2.983-67.842,2.07-120.938,17.378-180.742
		c12.354-47.676,28.989-83.76,54.971-117.783c4.487-6.006,7.49-11.582,6.733-12.52c-1.875-1.719-372.593-216.875-373.706-216.875
		c-0.371,0,2.241,7.1,5.62,15.723c13.086,32.148,23.916,74.395,30.835,119.805c5.234,33.086,7.3,112.559,3.921,146.182
		c-3.55,34.414-9.341,66.016-14.204,76.279c-2.236,5.254-11.211,17.002-19.639,26.182c-31.772,34.59-60.742,77.783-84.854,126.191
		c-65.439,131.592-72.168,280.234-19.819,437.437c13.462,40.381,28.599,74.59,51.768,116.475
		c12.549,22.993,4.688,51.226-17.554,64.312c-7.666,4.487-11.04,5.229-22.998,5.229c-26.743-0.176-37.217-10.088-60.566-57.759
		c-24.126-48.984-45.254-106.567-57.949-157.222c-21.885-87.856-27.31-185.649-14.966-270.122
		c16.27-111.23,67.866-223.428,145.249-315.576c8.052-9.521,15.327-19.238,16.089-21.504c6.733-17.939,8.975-116.455,3.354-155.537
		c-13.262-94.414-48.784-171.611-106.172-231.621c-30.488-31.953-55.903-51.611-97.959-75.723
		c-24.678-14.199-28.052-17.012-34.019-28.945c-4.121-8.037-4.487-11.045-3.94-24.512c0.371-12.91,1.304-16.455,5.811-23.164
		c2.788-4.287,9.146-10.293,13.809-13.457c8.057-4.873,10.303-5.43,25.244-5.43c18.882,0,21.318,0.938,55.713,21.504
		c10.845,6.504,152.188,88.594,314.248,182.656l294.443,171.025l44.868,1.133c46.733,1.133,71.592,3.711,111.592,11.787
		c152.93,30.273,291.47,118.711,385.689,246.016c66.729,90.273,109.155,200.762,120.391,313.486
		c2.983,29.727,2.417,105.459-1.128,134.785c-21.304,186.191-122.075,352.012-276.685,455.771l-17.012,11.406l2.441,9.541
		c15.137,58.696,2.046,126.187-34.385,174.976c-27.51,36.826-64.888,63.003-109.937,76.655c-15.142,4.663-19.824,5.034-53.101,5.596
		C2012.432,5617.182,1999.536,5616.611,1990.547,5614.545z M1777.812,5307.792c4.683-1.504,11.978-5.796,16.265-9.541
		c24.111-20.562,24.111-57.192,0-77.949c-10.454-8.799-23.54-13.086-37.197-11.777c-42.993,3.916-62.07,54.971-32.148,85.986
		C1739.307,5309.648,1758.364,5314.521,1777.812,5307.792z M1812.217,4826.582c22.241-10.84,37.378-33.076,39.443-57.578
		c3.555-42.422-32.71-79.434-75.156-76.621c-6.533,0.352-12.324,1.094-12.896,1.68c-0.566,0.352,3.75,31.016,9.17,68.027
		c5.601,37.012,10.278,68.438,10.278,69.922C1783.057,4836.123,1798.94,4833.144,1812.217,4826.582z M2037.871,4827.714
		c29.712-14.199,46.152-46.934,39.614-78.34c-3.35-15.879-8.97-25.801-21.318-37.559c-36.436-34.033-92.149-22.432-113.096,23.359
		c-17.383,37.754,3.55,83.008,44.316,96.27C2000.459,4835.761,2024.78,4833.886,2037.871,4827.714z"/>
	<path fill="#FFFFFF" d="M1534.795,4832.382c-33.096-12.324-52.92-45.977-47.119-80.938c5.415-33.848,33.081-58.906,67.295-60.977
		c32.729-1.836,58.34,13.486,72.349,43.77c4.507,9.551,5.249,13.271,5.249,28.975c0,16.836-0.371,18.506-7.119,31.973
		c-8.037,16.455-19.063,27.48-34.961,34.775C1576.294,4836.699,1549.375,4837.802,1534.795,4832.382z"/>
</g>
<text transform="matrix(1 0 0 1 263.6304 526.0684)" fill="#FFFFFF" font-family="'Candara'" font-size="75.3847">Chatchilla</text>
</svg>
